<svg xmlns="http://www.w3.org/2000/svg" width="1200" height="630" viewBox="0 0 1200 630">
  <defs>
    <linearGradient id="bg" x1="0%" y1="0%" x2="100%" y2="100%">
      <stop offset="0%" stop-color="#020c1b"/>
      <stop offset="50%" stop-color="#03162a"/>
      <stop offset="100%" stop-color="#082a48"/>
    </linearGradient>
    <linearGradient id="accent" x1="0%" y1="0%" x2="100%" y2="0%">
      <stop offset="0%" stop-color="#5eff9e"/>
      <stop offset="50%" stop-color="#00e2ff"/>
      <stop offset="100%" stop-color="#c47dff"/>
    </linearGradient>
    <radialGradient id="glow" cx="50%" cy="50%" r="50%">
      <stop offset="0%" stop-color="#00e2ff" stop-opacity="0.22"/>
      <stop offset="100%" stop-color="#00e2ff" stop-opacity="0"/>
    </radialGradient>
  </defs>
  <rect width="1200" height="630" fill="url(#bg)"/>
  <circle cx="240" cy="160" r="240" fill="url(#glow)"/>
  <circle cx="980" cy="520" r="260" fill="url(#glow)"/>
  <g stroke="#1a558a" stroke-width="0.5" opacity="0.28">
    <line x1="0" y1="150" x2="1200" y2="150"/>
    <line x1="0" y1="320" x2="1200" y2="320"/>
    <line x1="0" y1="490" x2="1200" y2="490"/>
  </g>
  <g transform="translate(600, 250)">
    <circle cx="0" cy="0" r="96" fill="#0e3e64" stroke="url(#accent)" stroke-width="3"/>
    <g transform="translate(-2,-2) scale(1.3)">
      <path d="M -60 2 C -60 -18, -38 -30, -8 -30 C 20 -30, 42 -20, 50 0 C 42 20, 20 28, -8 26 C -38 24, -60 16, -60 2 Z" fill="#5eff9e"/>
      <path d="M 44 -3 C 55 -11, 64 -22, 72 -20 C 74 -19, 72 -8, 66 -3 C 72 2, 74 14, 72 15 C 64 17, 55 6, 44 3 Z" fill="#5eff9e"/>
      <path d="M -56 6 C -40 16, -14 20, 8 16 C 6 9, 8 1, 11 -5 C -14 -7, -40 -3, -56 6 Z" fill="#7dffb6"/>
      <path d="M -4 15 C 4 29, 18 31, 24 25 C 14 23, 4 19, -2 13 Z" fill="#3fce78"/>
      <circle cx="-40" cy="-7" r="4" fill="#020c1b"/>
    </g>
    <g stroke="#00e2ff" stroke-width="3" fill="none" stroke-linecap="round" opacity="0.9">
      <path d="M -39 -41 C -49 -59, -39 -68, -47 -81"/>
      <path d="M -29 -41 C -26 -60, -18 -70, -23 -83"/>
      <path d="M -34 -41 C -36 -59, -30 -69, -35 -82"/>
    </g>
    <g fill="#00e2ff" opacity="0.9">
      <circle cx="-47" cy="-83" r="3"/>
      <circle cx="-23" cy="-85" r="3"/>
      <circle cx="-35" cy="-84" r="2.4"/>
    </g>
  </g>
  <text x="600" y="430" text-anchor="middle" font-family="Helvetica, Arial, sans-serif" font-size="76" font-weight="800" fill="#dff1ff" letter-spacing="4">WHALEWATCH</text>
  <text x="600" y="478" text-anchor="middle" font-family="Helvetica, Arial, sans-serif" font-size="20" font-weight="500" fill="#7baacf" letter-spacing="6">ETHEREUM · ON-CHAIN · RADAR</text>
  <g transform="translate(480, 530)">
    <rect width="240" height="44" rx="22" fill="#0e3e64" stroke="#2674b5" stroke-width="1"/>
    <text x="120" y="29" text-anchor="middle" font-family="Helvetica, Arial, sans-serif" font-size="18" font-weight="600" fill="#5eff9e">whalewatchapp.io</text>
  </g>
</svg>
